<svg xmlns="http://www.w3.org/2000/svg" xmlns:xlink="http://www.w3.org/1999/xlink" width="72" height="72" viewBox="0 0 72 72">
  <defs>
    <clipPath id="clip-icn-vps-hosting">
      <rect width="72" height="72"/>
    </clipPath>
  </defs>
  <g id="icn-vps-hosting" clip-path="url(#clip-icn-vps-hosting)">
    <g id="icn-vps-hosting-2" data-name="icn-vps-hosting" transform="translate(-319.49 -2253)">
      <rect id="Rectangle_25" data-name="Rectangle 25" width="52" height="54" rx="5" transform="translate(335 2260)" fill="#93a5ff" opacity="0.15"/>
      <g id="VPS_icon" transform="translate(323.49 2268.124)">
        <path id="Path_67" data-name="Path 67" d="M1.714,25.529a1.013,1.013,0,0,0,1.014-1.014A11.171,11.171,0,0,1,13.886,13.357H38.23v9.092l13.9-10.107L38.23,2.236v9.092H13.886A13.2,13.2,0,0,0,.7,24.514,1.013,1.013,0,0,0,1.714,25.529ZM40.258,6.22l8.419,6.122-8.419,6.122Z" transform="translate(0.01)" fill="#93a5ff" stroke="#93a5ff" stroke-linecap="round" stroke-linejoin="round" stroke-width="1"/>
        <path id="Path_68" data-name="Path 68" d="M50.412,26.2A1.013,1.013,0,0,0,49.4,27.214,11.171,11.171,0,0,1,38.24,38.372H13.9V29.279L0,39.386,13.9,49.493V40.4H38.24A13.2,13.2,0,0,0,51.426,27.214,1.013,1.013,0,0,0,50.412,26.2ZM11.868,45.509,3.449,39.386l8.419-6.122V45.509Z" transform="translate(0 0.343)" fill="#93a5ff" stroke="#93a5ff" stroke-linejoin="round" stroke-width="1"/>
      </g>
    </g>
  </g>
</svg>
