<svg xmlns="http://www.w3.org/2000/svg" xmlns:xlink="http://www.w3.org/1999/xlink" width="16" height="16" viewBox="0 0 16 16">
  <defs>
    <clipPath id="clip-icn-user">
      <rect width="16" height="16"/>
    </clipPath>
  </defs>
  <g id="icn-user" clip-path="url(#clip-icn-user)">
    <g id="icn-user-2" data-name="icn-user" transform="translate(1.58 -0.29)">
      <g id="icn-user-3" data-name="icn-user" transform="translate(-0.001 1.916)">
        <path id="Path_153" data-name="Path 153" d="M115.843,8.939a3.286,3.286,0,0,0,3-3.511c0-2.689-1.343-3.511-3-3.511s-3,.822-3,3.511A3.286,3.286,0,0,0,115.843,8.939Z" transform="translate(-109.153 -1.916)" fill="#93a5ff"/>
        <path id="Path_154" data-name="Path 154" d="M13.314,226.416,11.8,223.006a.76.76,0,0,0-.342-.364l-2.349-1.223a.151.151,0,0,0-.161.014,3.706,3.706,0,0,1-4.518,0,.152.152,0,0,0-.161-.014l-2.349,1.223a.759.759,0,0,0-.342.364L.065,226.416a.757.757,0,0,0,.692,1.064H12.622a.757.757,0,0,0,.692-1.064Z" transform="translate(0.001 -214.225)" fill="#93a5ff"/>
      </g>
    </g>
  </g>
</svg>
